<svg xmlns="http://www.w3.org/2000/svg" width="33" height="51"><defs><linearGradient id="grd1" gradientUnits="userSpaceOnUse" x1="16.5" y1="2.886" x2="16.5" y2="51.114"><stop offset="0" stop-color="#ff955d"/><stop offset="1" stop-color="#ff4cab"/></linearGradient></defs><style/><g id="homepage"><g id="Group 5"><g id="1"><g id="Group"><path id="Fill 1" fill-rule="evenodd" d="M33 17.33c0 4.09-1.53 8.04-4.46 11.1-2.68 2.8-4.07 6.76-4.07 11.09l-.02 6.64c0 2.67-2.16 4.84-4.84 4.84h-6.24c-2.67 0-4.84-2.17-4.84-4.84l.01-6.64c0-4.2-1.53-8.29-4.32-11.35C1.04 24.6-.49 19.88.14 15.03 1.16 7.77 7.56 1 16.43 1 25.47 1 32.99 8.27 33 17.33zM22.01 46.16v-2.94H11.2v2.94c0 1.28 1.01 2.3 2.29 2.3h6.24c1.28 0 2.3-1.03 2.3-2.3h-.02zm8.44-28.83c0-7.52-6.24-13.77-14.01-13.77-7.42 0-12.98 5.75-13.87 11.86-.5 4.09.64 8.04 3.44 11.1 3.18 3.57 5.09 8.28 5.09 13v1.15h10.82v-1.15c0-4.97 1.66-9.56 4.84-12.88 2.42-2.55 3.69-5.87 3.69-9.31z" fill="url(#grd1)"/></g></g></g></g></svg>